<?xml version="1.0" encoding="us-ascii" standalone="no"?><svg xmlns="http://www.w3.org/2000/svg" xmlns:xlink="http://www.w3.org/1999/xlink" contentStyleType="text/css" height="1587px" preserveAspectRatio="none" style="width:2227px;height:1587px;background:#FFFFFF;" version="1.1" viewBox="0 0 2227 1587" width="2227px" zoomAndPan="magnify"><defs/><g><rect fill="#FFFFFF" height="1566.9922" style="stroke:#181818;stroke-width:1.5;" width="2216" x="5" y="15"/><path d="M330,15 L330,25.6094 L320,35.6094 L5,35.6094 " fill="none" style="stroke:#181818;stroke-width:1.5;"/><text fill="#000000" font-family="sans-serif" font-size="14" lengthAdjust="spacing" textLength="315" x="8" y="30.5332">View Merchandise Details (Apply to Admin as well)</text><rect fill="#FFFFFF" height="1421.1641" style="stroke:#181818;stroke-width:1.0;" width="10" x="52.5" y="132.2188"/><rect fill="#FFFFFF" height="1383.8125" style="stroke:#181818;stroke-width:1.0;" width="10" x="317.5" y="154.5703"/><rect fill="#FFFFFF" height="1323.1094" style="stroke:#181818;stroke-width:1.0;" width="10" x="550.5" y="184.9219"/><rect fill="#FFFFFF" height="28" style="stroke:#181818;stroke-width:1.0;" width="10" x="555.5" y="916.8438"/><rect fill="#FFFFFF" height="1262.4063" style="stroke:#181818;stroke-width:1.0;" width="10" x="779.5" y="215.2734"/><rect fill="#FFFFFF" height="1201.7031" style="stroke:#181818;stroke-width:1.0;" width="10" x="1008.5" y="245.625"/><rect fill="#FFFFFF" height="28" style="stroke:#181818;stroke-width:1.0;" width="10" x="1013.5" y="782.7891"/><rect fill="#FFFFFF" height="1141" style="stroke:#181818;stroke-width:1.0;" width="10" x="1308.5" y="275.9766"/><rect fill="#FFFFFF" height="30.3516" style="stroke:#181818;stroke-width:1.0;" width="10" x="1530.5" y="469.4375"/><rect fill="#FFFFFF" height="76.7969" style="stroke:#181818;stroke-width:1.0;" width="10" x="1638" y="560.4922"/><rect fill="#FFFFFF" height="76.7969" style="stroke:#181818;stroke-width:1.0;" width="10" x="1763" y="667.6406"/><rect fill="#FFFFFF" height="200.2969" style="stroke:#181818;stroke-width:1.0;" width="10" x="1882" y="982.1953"/><rect fill="#FFFFFF" height="107.4063" style="stroke:#181818;stroke-width:1.0;" width="10" x="1976.5" y="306.3281"/><rect fill="#FFFFFF" height="30.3516" style="stroke:#181818;stroke-width:1.0;" width="10" x="2155.5" y="353.0313"/><rect fill="none" height="1117.6484" style="stroke:#000000;stroke-width:1.5;" width="2184" x="20" y="428.7344"/><rect fill="none" height="127.5938" style="stroke:#000000;stroke-width:1.5;" width="413" x="30" y="1244.1953"/><line style="stroke:#181818;stroke-width:0.5;stroke-dasharray:5.0,5.0;" x1="57" x2="57" y1="122.2188" y2="1563.3828"/><line style="stroke:#181818;stroke-width:0.5;stroke-dasharray:5.0,5.0;" x1="322" x2="322" y1="122.2188" y2="1563.3828"/><line style="stroke:#181818;stroke-width:0.5;stroke-dasharray:5.0,5.0;" x1="555" x2="555" y1="122.2188" y2="1563.3828"/><line style="stroke:#181818;stroke-width:0.5;stroke-dasharray:5.0,5.0;" x1="784" x2="784" y1="122.2188" y2="1563.3828"/><line style="stroke:#181818;stroke-width:0.5;stroke-dasharray:5.0,5.0;" x1="1013.5" x2="1013.5" y1="122.2188" y2="1563.3828"/><line style="stroke:#181818;stroke-width:0.5;stroke-dasharray:5.0,5.0;" x1="1313" x2="1313" y1="122.2188" y2="1563.3828"/><line style="stroke:#181818;stroke-width:0.5;stroke-dasharray:5.0,5.0;" x1="1535" x2="1535" y1="122.2188" y2="1563.3828"/><line style="stroke:#181818;stroke-width:0.5;stroke-dasharray:5.0,5.0;" x1="1643" x2="1643" y1="122.2188" y2="1563.3828"/><line style="stroke:#181818;stroke-width:0.5;stroke-dasharray:5.0,5.0;" x1="1768" x2="1768" y1="122.2188" y2="1563.3828"/><line style="stroke:#181818;stroke-width:0.5;stroke-dasharray:5.0,5.0;" x1="1887" x2="1887" y1="122.2188" y2="1563.3828"/><line style="stroke:#181818;stroke-width:0.5;stroke-dasharray:5.0,5.0;" x1="1981" x2="1981" y1="122.2188" y2="1563.3828"/><line style="stroke:#181818;stroke-width:0.5;stroke-dasharray:5.0,5.0;" x1="2160" x2="2160" y1="122.2188" y2="1563.3828"/><text fill="#000000" font-family="sans-serif" font-size="14" lengthAdjust="spacing" textLength="29" x="40" y="119.1426">Staff</text><ellipse cx="57.5" cy="52.6094" fill="#FFFFFF" rx="8" ry="8" style="stroke:#181818;stroke-width:1.0;"/><path d="M57.5,60.6094 L57.5,87.6094 M44.5,68.6094 L70.5,68.6094 M57.5,87.6094 L44.5,102.6094 M57.5,87.6094 L70.5,102.6094 " fill="none" style="stroke:#181818;stroke-width:1.0;"/><rect fill="#FFFFFF" height="31.6094" style="stroke:#181818;stroke-width:0.5;" width="221" x="212" y="89.6094"/><text fill="#000000" font-family="sans-serif" font-size="14" lengthAdjust="spacing" text-decoration="underline" textLength="207" x="219" y="111.1426">:ProductDetailsManagementView</text><rect fill="#FFFFFF" height="31.6094" style="stroke:#181818;stroke-width:0.5;" width="223" x="444" y="89.6094"/><text fill="#000000" font-family="sans-serif" font-size="14" lengthAdjust="spacing" text-decoration="underline" textLength="209" x="451" y="111.1426">:ManageProductDetailsController</text><rect fill="#FFFFFF" height="31.6094" style="stroke:#181818;stroke-width:0.5;" width="115" x="727" y="89.6094"/><text fill="#000000" font-family="sans-serif" font-size="14" lengthAdjust="spacing" text-decoration="underline" textLength="101" x="734" y="111.1426">:ProductFactory</text><rect fill="#FFFFFF" height="31.6094" style="stroke:#181818;stroke-width:0.5;" width="110" x="958.5" y="89.6094"/><text fill="#000000" font-family="sans-serif" font-size="14" lengthAdjust="spacing" text-decoration="underline" textLength="96" x="965.5" y="111.1426">:MerchProvider</text><rect fill="#FFFFFF" height="31.6094" style="stroke:#181818;stroke-width:0.5;" width="87" x="1270" y="89.6094"/><text fill="#000000" font-family="sans-serif" font-size="14" lengthAdjust="spacing" text-decoration="underline" textLength="73" x="1277" y="111.1426">:MerchDAO</text><rect fill="#FFFFFF" height="31.6094" style="stroke:#181818;stroke-width:0.5;" width="99" x="1486" y="89.6094"/><text fill="#000000" font-family="sans-serif" font-size="14" lengthAdjust="spacing" text-decoration="underline" textLength="85" x="1493" y="111.1426">:Merchandise</text><rect fill="#FFFFFF" height="31.6094" style="stroke:#181818;stroke-width:0.5;" width="96" x="1595" y="89.6094"/><text fill="#000000" font-family="sans-serif" font-size="14" lengthAdjust="spacing" text-decoration="underline" textLength="82" x="1602" y="111.1426">:CreatorDAO</text><rect fill="#FFFFFF" height="31.6094" style="stroke:#181818;stroke-width:0.5;" width="134" x="1701" y="89.6094"/><text fill="#000000" font-family="sans-serif" font-size="14" lengthAdjust="spacing" text-decoration="underline" textLength="120" x="1708" y="111.1426">:OrderProductDAO</text><rect fill="#FFFFFF" height="31.6094" style="stroke:#181818;stroke-width:0.5;" width="84" x="1845" y="89.6094"/><text fill="#000000" font-family="sans-serif" font-size="14" lengthAdjust="spacing" text-decoration="underline" textLength="70" x="1852" y="111.1426">:EventDAO</text><rect fill="#FFFFFF" height="31.6094" style="stroke:#181818;stroke-width:0.5;" width="85" x="1939" y="89.6094"/><text fill="#000000" font-family="sans-serif" font-size="14" lengthAdjust="spacing" text-decoration="underline" textLength="71" x="1946" y="111.1426">:DBContext</text><text fill="#000000" font-family="sans-serif" font-size="14" lengthAdjust="spacing" textLength="61" x="2127" y="119.1426">Database</text><path d="M2142.5,68.6094 C2142.5,58.6094 2160.5,58.6094 2160.5,58.6094 C2160.5,58.6094 2178.5,58.6094 2178.5,68.6094 L2178.5,94.6094 C2178.5,104.6094 2160.5,104.6094 2160.5,104.6094 C2160.5,104.6094 2142.5,104.6094 2142.5,94.6094 L2142.5,68.6094 " fill="#FFFFFF" style="stroke:#181818;stroke-width:1.5;"/><path d="M2142.5,68.6094 C2142.5,78.6094 2160.5,78.6094 2160.5,78.6094 C2160.5,78.6094 2178.5,78.6094 2178.5,68.6094 " fill="none" style="stroke:#181818;stroke-width:1.5;"/><rect fill="#FFFFFF" height="1421.1641" style="stroke:#181818;stroke-width:1.0;" width="10" x="52.5" y="132.2188"/><rect fill="#FFFFFF" height="1383.8125" style="stroke:#181818;stroke-width:1.0;" width="10" x="317.5" y="154.5703"/><rect fill="#FFFFFF" height="1323.1094" style="stroke:#181818;stroke-width:1.0;" width="10" x="550.5" y="184.9219"/><rect fill="#FFFFFF" height="28" style="stroke:#181818;stroke-width:1.0;" width="10" x="555.5" y="916.8438"/><rect fill="#FFFFFF" height="1262.4063" style="stroke:#181818;stroke-width:1.0;" width="10" x="779.5" y="215.2734"/><rect fill="#FFFFFF" height="1201.7031" style="stroke:#181818;stroke-width:1.0;" width="10" x="1008.5" y="245.625"/><rect fill="#FFFFFF" height="28" style="stroke:#181818;stroke-width:1.0;" width="10" x="1013.5" y="782.7891"/><rect fill="#FFFFFF" height="1141" style="stroke:#181818;stroke-width:1.0;" width="10" x="1308.5" y="275.9766"/><rect fill="#FFFFFF" height="30.3516" style="stroke:#181818;stroke-width:1.0;" width="10" x="1530.5" y="469.4375"/><rect fill="#FFFFFF" height="76.7969" style="stroke:#181818;stroke-width:1.0;" width="10" x="1638" y="560.4922"/><rect fill="#FFFFFF" height="76.7969" style="stroke:#181818;stroke-width:1.0;" width="10" x="1763" y="667.6406"/><rect fill="#FFFFFF" height="200.2969" style="stroke:#181818;stroke-width:1.0;" width="10" x="1882" y="982.1953"/><rect fill="#FFFFFF" height="107.4063" style="stroke:#181818;stroke-width:1.0;" width="10" x="1976.5" y="306.3281"/><rect fill="#FFFFFF" height="30.3516" style="stroke:#181818;stroke-width:1.0;" width="10" x="2155.5" y="353.0313"/><polygon fill="#181818" points="305.5,150.5703,315.5,154.5703,305.5,158.5703,309.5,154.5703" style="stroke:#181818;stroke-width:1.0;"/><line style="stroke:#181818;stroke-width:1.0;" x1="62.5" x2="311.5" y1="154.5703" y2="154.5703"/><text fill="#000000" font-family="sans-serif" font-size="13" lengthAdjust="spacing" textLength="137" x="69.5" y="149.7139">1.Select a merchandise</text><polygon fill="#181818" points="538.5,180.9219,548.5,184.9219,538.5,188.9219,542.5,184.9219" style="stroke:#181818;stroke-width:1.0;"/><line style="stroke:#181818;stroke-width:1.0;" x1="327.5" x2="544.5" y1="184.9219" y2="184.9219"/><text fill="#000000" font-family="sans-serif" font-size="13" lengthAdjust="spacing" textLength="54" x="334.5" y="180.0654">2.doGet()</text><polygon fill="#181818" points="767.5,211.2734,777.5,215.2734,767.5,219.2734,771.5,215.2734" style="stroke:#181818;stroke-width:1.0;"/><line style="stroke:#181818;stroke-width:1.0;" x1="560.5" x2="773.5" y1="215.2734" y2="215.2734"/><text fill="#000000" font-family="sans-serif" font-size="13" lengthAdjust="spacing" textLength="82" x="567.5" y="210.417">3.getProduct()</text><polygon fill="#181818" points="996.5,241.625,1006.5,245.625,996.5,249.625,1000.5,245.625" style="stroke:#181818;stroke-width:1.0;"/><line style="stroke:#181818;stroke-width:1.0;" x1="789.5" x2="1002.5" y1="245.625" y2="245.625"/><text fill="#000000" font-family="sans-serif" font-size="13" lengthAdjust="spacing" textLength="84" x="796.5" y="240.7686">4.findProduct()</text><polygon fill="#181818" points="1296.5,271.9766,1306.5,275.9766,1296.5,279.9766,1300.5,275.9766" style="stroke:#181818;stroke-width:1.0;"/><line style="stroke:#181818;stroke-width:1.0;" x1="1018.5" x2="1302.5" y1="275.9766" y2="275.9766"/><text fill="#000000" font-family="sans-serif" font-size="13" lengthAdjust="spacing" textLength="108" x="1025.5" y="271.1201">5.getProductById()</text><polygon fill="#181818" points="1964.5,302.3281,1974.5,306.3281,1964.5,310.3281,1968.5,306.3281" style="stroke:#181818;stroke-width:1.0;"/><line style="stroke:#181818;stroke-width:1.0;" x1="1318.5" x2="1970.5" y1="306.3281" y2="306.3281"/><text fill="#000000" font-family="sans-serif" font-size="13" lengthAdjust="spacing" textLength="75" x="1325.5" y="301.4717">6.exeQuery()</text><polygon fill="#181818" points="2143.5,349.0313,2153.5,353.0313,2143.5,357.0313,2147.5,353.0313" style="stroke:#181818;stroke-width:1.0;"/><line style="stroke:#181818;stroke-width:1.0;" x1="1986.5" x2="2149.5" y1="353.0313" y2="353.0313"/><text fill="#000000" font-family="sans-serif" font-size="13" lengthAdjust="spacing" textLength="150" x="1993.5" y="331.8232">7.SELECT a merchandise</text><text fill="#000000" font-family="sans-serif" font-size="13" lengthAdjust="spacing" textLength="143" x="1993.5" y="348.1748">based on merchandiseID</text><polygon fill="#181818" points="1997.5,379.3828,1987.5,383.3828,1997.5,387.3828,1993.5,383.3828" style="stroke:#181818;stroke-width:1.0;"/><line style="stroke:#181818;stroke-width:1.0;stroke-dasharray:2.0,2.0;" x1="1991.5" x2="2159.5" y1="383.3828" y2="383.3828"/><text fill="#000000" font-family="sans-serif" font-size="13" lengthAdjust="spacing" textLength="110" x="2003.5" y="378.5264">8 Return ResultSet</text><polygon fill="#181818" points="1329.5,409.7344,1319.5,413.7344,1329.5,417.7344,1325.5,413.7344" style="stroke:#181818;stroke-width:1.0;"/><line style="stroke:#181818;stroke-width:1.0;stroke-dasharray:2.0,2.0;" x1="1323.5" x2="1980.5" y1="413.7344" y2="413.7344"/><text fill="#000000" font-family="sans-serif" font-size="13" lengthAdjust="spacing" textLength="110" x="1335.5" y="408.8779">9.Return ResultSet</text><path d="M20,428.7344 L81,428.7344 L81,437.0859 L71,447.0859 L20,447.0859 L20,428.7344 " fill="#FFFFFF" style="stroke:#000000;stroke-width:1.5;"/><rect fill="none" height="1117.6484" style="stroke:#000000;stroke-width:1.5;" width="2184" x="20" y="428.7344"/><text fill="#000000" font-family="sans-serif" font-size="13" font-weight="bold" lengthAdjust="spacing" textLength="16" x="35" y="443.2295">alt</text><text fill="#000000" font-family="sans-serif" font-size="11" font-weight="bold" lengthAdjust="spacing" textLength="133" x="96" y="442.1533">[ResultSet is not empty]</text><polygon fill="#181818" points="1518.5,465.4375,1528.5,469.4375,1518.5,473.4375,1522.5,469.4375" style="stroke:#181818;stroke-width:1.0;"/><line style="stroke:#181818;stroke-width:1.0;" x1="1318.5" x2="1524.5" y1="469.4375" y2="469.4375"/><text fill="#000000" font-family="sans-serif" font-size="13" lengthAdjust="spacing" textLength="131" x="1325.5" y="464.5811">9.1.new Merchandise()</text><polygon fill="#181818" points="1329.5,495.7891,1319.5,499.7891,1329.5,503.7891,1325.5,499.7891" style="stroke:#181818;stroke-width:1.0;"/><line style="stroke:#181818;stroke-width:1.0;stroke-dasharray:2.0,2.0;" x1="1323.5" x2="1534.5" y1="499.7891" y2="499.7891"/><text fill="#000000" font-family="sans-serif" font-size="13" lengthAdjust="spacing" textLength="188" x="1335.5" y="494.9326">9.1.1.Return merchandise object</text><polygon fill="#181818" points="1029.5,526.1406,1019.5,530.1406,1029.5,534.1406,1025.5,530.1406" style="stroke:#181818;stroke-width:1.0;"/><line style="stroke:#181818;stroke-width:1.0;stroke-dasharray:2.0,2.0;" x1="1023.5" x2="1307.5" y1="530.1406" y2="530.1406"/><text fill="#000000" font-family="sans-serif" font-size="13" lengthAdjust="spacing" textLength="188" x="1035.5" y="525.2842">9.1.2.Return merchandise object</text><polygon fill="#181818" points="1626,556.4922,1636,560.4922,1626,564.4922,1630,560.4922" style="stroke:#181818;stroke-width:1.0;"/><line style="stroke:#181818;stroke-width:1.0;" x1="1018.5" x2="1632" y1="560.4922" y2="560.4922"/><text fill="#000000" font-family="sans-serif" font-size="13" lengthAdjust="spacing" textLength="219" x="1025.5" y="555.6357">9.1.3.getExtraAttributesByProductID()</text><rect fill="#FFFFFF" height="41.4453" style="stroke:#000000;stroke-width:1.5;" width="605" x="1592" y="568.4922"/><path d="M1592,568.4922 L1654,568.4922 L1654,576.4922 L1644,586.4922 L1592,586.4922 L1592,568.4922 " fill="#FFFFFF" style="stroke:#000000;stroke-width:2.0;"/><text fill="#000000" font-family="sans-serif" font-size="13" font-weight="bold" lengthAdjust="spacing" textLength="17" x="1605" y="583.9873">ref</text><text fill="#000000" font-family="sans-serif" font-size="12" lengthAdjust="spacing" textLength="176" x="1806.5" y="602.9492">9.1.4.Get Creators By Product ID</text><polygon fill="#181818" points="1029.5,633.2891,1019.5,637.2891,1029.5,641.2891,1025.5,637.2891" style="stroke:#181818;stroke-width:1.0;"/><line style="stroke:#181818;stroke-width:1.0;stroke-dasharray:2.0,2.0;" x1="1023.5" x2="1642" y1="637.2891" y2="637.2891"/><text fill="#000000" font-family="sans-serif" font-size="13" lengthAdjust="spacing" textLength="154" x="1035.5" y="632.4326">9.1.5.Return List&lt;Creator&gt;</text><polygon fill="#181818" points="1751,663.6406,1761,667.6406,1751,671.6406,1755,667.6406" style="stroke:#181818;stroke-width:1.0;"/><line style="stroke:#181818;stroke-width:1.0;" x1="1018.5" x2="1757" y1="667.6406" y2="667.6406"/><text fill="#000000" font-family="sans-serif" font-size="13" lengthAdjust="spacing" textLength="219" x="1025.5" y="662.7842">9.1.6.getExtraAttributesByProductID()</text><rect fill="#FFFFFF" height="41.4453" style="stroke:#000000;stroke-width:1.5;" width="499" x="1698" y="675.6406"/><path d="M1698,675.6406 L1760,675.6406 L1760,683.6406 L1750,693.6406 L1698,693.6406 L1698,675.6406 " fill="#FFFFFF" style="stroke:#000000;stroke-width:2.0;"/><text fill="#000000" font-family="sans-serif" font-size="13" font-weight="bold" lengthAdjust="spacing" textLength="17" x="1711" y="691.1357">ref</text><text fill="#000000" font-family="sans-serif" font-size="12" lengthAdjust="spacing" textLength="208" x="1843.5" y="710.0977">9.1.7.Get OrderProducts By Product ID</text><polygon fill="#181818" points="1029.5,740.4375,1019.5,744.4375,1029.5,748.4375,1025.5,744.4375" style="stroke:#181818;stroke-width:1.0;"/><line style="stroke:#181818;stroke-width:1.0;stroke-dasharray:2.0,2.0;" x1="1023.5" x2="1767" y1="744.4375" y2="744.4375"/><text fill="#000000" font-family="sans-serif" font-size="13" lengthAdjust="spacing" textLength="189" x="1035.5" y="739.5811">9.1.8.Return List&lt;OrderProduct&gt;</text><line style="stroke:#181818;stroke-width:1.0;" x1="1023.5" x2="1065.5" y1="774.7891" y2="774.7891"/><line style="stroke:#181818;stroke-width:1.0;" x1="1065.5" x2="1065.5" y1="774.7891" y2="787.7891"/><line style="stroke:#181818;stroke-width:1.0;" x1="1024.5" x2="1065.5" y1="787.7891" y2="787.7891"/><polygon fill="#181818" points="1034.5,783.7891,1024.5,787.7891,1034.5,791.7891,1030.5,787.7891" style="stroke:#181818;stroke-width:1.0;"/><text fill="#000000" font-family="sans-serif" font-size="13" lengthAdjust="spacing" textLength="276" x="1030.5" y="769.9326">9.1.9.Set extra attributes to merchandise object</text><polygon fill="#181818" points="800.5,844.1406,790.5,848.1406,800.5,852.1406,796.5,848.1406" style="stroke:#181818;stroke-width:1.0;"/><line style="stroke:#181818;stroke-width:1.0;stroke-dasharray:2.0,2.0;" x1="794.5" x2="1007.5" y1="848.1406" y2="848.1406"/><text fill="#000000" font-family="sans-serif" font-size="13" lengthAdjust="spacing" textLength="195" x="806.5" y="843.2842">9.1.10.Return merchandise object</text><polygon fill="#181818" points="571.5,874.4922,561.5,878.4922,571.5,882.4922,567.5,878.4922" style="stroke:#181818;stroke-width:1.0;"/><line style="stroke:#181818;stroke-width:1.0;stroke-dasharray:2.0,2.0;" x1="565.5" x2="778.5" y1="878.4922" y2="878.4922"/><text fill="#000000" font-family="sans-serif" font-size="13" lengthAdjust="spacing" textLength="195" x="577.5" y="873.6357">9.1.11.Return merchandise object</text><line style="stroke:#181818;stroke-width:1.0;" x1="565.5" x2="607.5" y1="908.8438" y2="908.8438"/><line style="stroke:#181818;stroke-width:1.0;" x1="607.5" x2="607.5" y1="908.8438" y2="921.8438"/><line style="stroke:#181818;stroke-width:1.0;" x1="566.5" x2="607.5" y1="921.8438" y2="921.8438"/><polygon fill="#181818" points="576.5,917.8438,566.5,921.8438,576.5,925.8438,572.5,921.8438" style="stroke:#181818;stroke-width:1.0;"/><text fill="#000000" font-family="sans-serif" font-size="13" lengthAdjust="spacing" textLength="131" x="572.5" y="903.9873">9.1.12.getReviewMap()</text><polygon fill="#181818" points="1870,978.1953,1880,982.1953,1870,986.1953,1874,982.1953" style="stroke:#181818;stroke-width:1.0;"/><line style="stroke:#181818;stroke-width:1.0;" x1="560.5" x2="1876" y1="982.1953" y2="982.1953"/><text fill="#000000" font-family="sans-serif" font-size="13" lengthAdjust="spacing" textLength="161" x="567.5" y="977.3389">9.1.13.getListActiveEvents()</text><rect fill="#FFFFFF" height="41.4453" style="stroke:#000000;stroke-width:1.5;" width="355" x="1842" y="990.1953"/><path d="M1842,990.1953 L1904,990.1953 L1904,998.1953 L1894,1008.1953 L1842,1008.1953 L1842,990.1953 " fill="#FFFFFF" style="stroke:#000000;stroke-width:2.0;"/><text fill="#000000" font-family="sans-serif" font-size="13" font-weight="bold" lengthAdjust="spacing" textLength="17" x="1855" y="1005.6904">ref</text><text fill="#000000" font-family="sans-serif" font-size="12" lengthAdjust="spacing" textLength="153" x="1943" y="1024.6523">9.1.14.Get List Active Events</text><polygon fill="#181818" points="571.5,1054.9922,561.5,1058.9922,571.5,1062.9922,567.5,1058.9922" style="stroke:#181818;stroke-width:1.0;"/><line style="stroke:#181818;stroke-width:1.0;stroke-dasharray:2.0,2.0;" x1="565.5" x2="1881" y1="1058.9922" y2="1058.9922"/><text fill="#000000" font-family="sans-serif" font-size="13" lengthAdjust="spacing" textLength="151" x="577.5" y="1054.1357">9.1.15.Return List&lt;Event&gt;</text><polygon fill="#181818" points="1870,1085.3438,1880,1089.3438,1870,1093.3438,1874,1089.3438" style="stroke:#181818;stroke-width:1.0;"/><line style="stroke:#181818;stroke-width:1.0;" x1="560.5" x2="1876" y1="1089.3438" y2="1089.3438"/><text fill="#000000" font-family="sans-serif" font-size="13" lengthAdjust="spacing" textLength="171" x="567.5" y="1084.4873">9.1.16.getEventByProductID()</text><rect fill="#FFFFFF" height="41.4453" style="stroke:#000000;stroke-width:1.5;" width="355" x="1842" y="1097.3438"/><path d="M1842,1097.3438 L1904,1097.3438 L1904,1105.3438 L1894,1115.3438 L1842,1115.3438 L1842,1097.3438 " fill="#FFFFFF" style="stroke:#000000;stroke-width:2.0;"/><text fill="#000000" font-family="sans-serif" font-size="13" font-weight="bold" lengthAdjust="spacing" textLength="17" x="1855" y="1112.8389">ref</text><text fill="#000000" font-family="sans-serif" font-size="12" lengthAdjust="spacing" textLength="165" x="1937" y="1131.8008">9.1.17.Get Event By Product ID</text><polygon fill="#181818" points="571.5,1178.4922,561.5,1182.4922,571.5,1186.4922,567.5,1182.4922" style="stroke:#181818;stroke-width:1.0;"/><line style="stroke:#181818;stroke-width:1.0;stroke-dasharray:2.0,2.0;" x1="565.5" x2="1886" y1="1182.4922" y2="1182.4922"/><text fill="#000000" font-family="sans-serif" font-size="13" lengthAdjust="spacing" textLength="153" x="577.5" y="1161.2842">9.1.18.Return Event object</text><text fill="#000000" font-family="sans-serif" font-size="13" lengthAdjust="spacing" textLength="35" x="577.5" y="1177.6357">or null</text><polygon fill="#181818" points="338.5,1225.1953,328.5,1229.1953,338.5,1233.1953,334.5,1229.1953" style="stroke:#181818;stroke-width:1.0;"/><line style="stroke:#181818;stroke-width:1.0;stroke-dasharray:2.0,2.0;" x1="332.5" x2="549.5" y1="1229.1953" y2="1229.1953"/><text fill="#000000" font-family="sans-serif" font-size="13" lengthAdjust="spacing" textLength="199" x="344.5" y="1207.9873">9.1.19.Return merchandise object,</text><text fill="#000000" font-family="sans-serif" font-size="13" lengthAdjust="spacing" textLength="123" x="344.5" y="1224.3389">reviewMap,event data</text><path d="M30,1244.1953 L91,1244.1953 L91,1252.5469 L81,1262.5469 L30,1262.5469 L30,1244.1953 " fill="#FFFFFF" style="stroke:#000000;stroke-width:1.5;"/><rect fill="none" height="127.5938" style="stroke:#000000;stroke-width:1.5;" width="413" x="30" y="1244.1953"/><text fill="#000000" font-family="sans-serif" font-size="13" font-weight="bold" lengthAdjust="spacing" textLength="16" x="45" y="1258.6904">alt</text><text fill="#000000" font-family="sans-serif" font-size="11" font-weight="bold" lengthAdjust="spacing" textLength="88" x="106" y="1257.6143">[actor is Admin]</text><polygon fill="#181818" points="73.5,1297.25,63.5,1301.25,73.5,1305.25,69.5,1301.25" style="stroke:#181818;stroke-width:1.0;"/><line style="stroke:#181818;stroke-width:1.0;stroke-dasharray:2.0,2.0;" x1="67.5" x2="316.5" y1="1301.25" y2="1301.25"/><text fill="#000000" font-family="sans-serif" font-size="13" lengthAdjust="spacing" textLength="218" x="79.5" y="1280.042">9.1.19.1.Display merchandise details,</text><text fill="#000000" font-family="sans-serif" font-size="13" lengthAdjust="spacing" textLength="231" x="79.5" y="1296.3936">merchandise reviews, assignable events</text><line style="stroke:#000000;stroke-width:1.0;stroke-dasharray:2.0,2.0;" x1="30" x2="443" y1="1310.25" y2="1310.25"/><text fill="#000000" font-family="sans-serif" font-size="11" font-weight="bold" lengthAdjust="spacing" textLength="77" x="35" y="1321.6689">[actor is Staff]</text><polygon fill="#181818" points="73.5,1359.7891,63.5,1363.7891,73.5,1367.7891,69.5,1363.7891" style="stroke:#181818;stroke-width:1.0;"/><line style="stroke:#181818;stroke-width:1.0;stroke-dasharray:2.0,2.0;" x1="67.5" x2="316.5" y1="1363.7891" y2="1363.7891"/><text fill="#000000" font-family="sans-serif" font-size="13" lengthAdjust="spacing" textLength="218" x="79.5" y="1342.5811">9.1.19.2.Display merchandise details,</text><text fill="#000000" font-family="sans-serif" font-size="13" lengthAdjust="spacing" textLength="120" x="79.5" y="1358.9326">merchandise reviews</text><line style="stroke:#000000;stroke-width:1.0;stroke-dasharray:2.0,2.0;" x1="20" x2="2204" y1="1379.7891" y2="1379.7891"/><text fill="#000000" font-family="sans-serif" font-size="11" font-weight="bold" lengthAdjust="spacing" textLength="112" x="25" y="1391.208">[ResultSet is empty]</text><polygon fill="#181818" points="1029.5,1412.9766,1019.5,1416.9766,1029.5,1420.9766,1025.5,1416.9766" style="stroke:#181818;stroke-width:1.0;"/><line style="stroke:#181818;stroke-width:1.0;stroke-dasharray:2.0,2.0;" x1="1023.5" x2="1312.5" y1="1416.9766" y2="1416.9766"/><text fill="#000000" font-family="sans-serif" font-size="13" lengthAdjust="spacing" textLength="84" x="1035.5" y="1412.1201">9.2.Return null</text><polygon fill="#181818" points="800.5,1443.3281,790.5,1447.3281,800.5,1451.3281,796.5,1447.3281" style="stroke:#181818;stroke-width:1.0;"/><line style="stroke:#181818;stroke-width:1.0;stroke-dasharray:2.0,2.0;" x1="794.5" x2="1012.5" y1="1447.3281" y2="1447.3281"/><text fill="#000000" font-family="sans-serif" font-size="13" lengthAdjust="spacing" textLength="95" x="806.5" y="1442.4717">9.2.1.Return null</text><polygon fill="#181818" points="571.5,1473.6797,561.5,1477.6797,571.5,1481.6797,567.5,1477.6797" style="stroke:#181818;stroke-width:1.0;"/><line style="stroke:#181818;stroke-width:1.0;stroke-dasharray:2.0,2.0;" x1="565.5" x2="783.5" y1="1477.6797" y2="1477.6797"/><text fill="#000000" font-family="sans-serif" font-size="13" lengthAdjust="spacing" textLength="95" x="577.5" y="1472.8232">9.2.2.Return null</text><polygon fill="#181818" points="338.5,1504.0313,328.5,1508.0313,338.5,1512.0313,334.5,1508.0313" style="stroke:#181818;stroke-width:1.0;"/><line style="stroke:#181818;stroke-width:1.0;stroke-dasharray:2.0,2.0;" x1="332.5" x2="554.5" y1="1508.0313" y2="1508.0313"/><text fill="#000000" font-family="sans-serif" font-size="13" lengthAdjust="spacing" textLength="162" x="344.5" y="1503.1748">9.2.3.Return failed message</text><polygon fill="#181818" points="73.5,1534.3828,63.5,1538.3828,73.5,1542.3828,69.5,1538.3828" style="stroke:#181818;stroke-width:1.0;"/><line style="stroke:#181818;stroke-width:1.0;stroke-dasharray:2.0,2.0;" x1="67.5" x2="321.5" y1="1538.3828" y2="1538.3828"/><text fill="#000000" font-family="sans-serif" font-size="13" lengthAdjust="spacing" textLength="155" x="79.5" y="1533.5264">9.2.4.Display the message</text><!--SRC=[hLPRRo8t57xthx3sQLURcIxibIWQ2KBQHagqRRBgKrxCp07S7UofRKZGQlzxp_45PW84KPKeOiR-pdVydPkvi6vTGy4uVYpyimHLmbYAcH6B7twHFg9qscnVwJCIvVUPqKjLNUfQ6_uubmuwY1kfuDjSbjyLMCjx-RlDxi_DKoECawLiX7Adqj-5JQF0y7tKbN1Y8YoSmhkr9appEuWAp7yZC305Gy7yNqXED__9Bdw9gMLpMG6VQkqc-ecnXP1gYka5_fU4HtuBffmBLKaBV0nEoDhoryEcgTVSQJwi5b9nOVaZrFKRndmby7idfbDQnLV6MadahowMnVaVHbVBqaMsMw7431QW7FbxHMOhVDWr2y2kyQLMpkYw1kCDIsVgW_v-zOTRU-1Kb7iSa5G4hp0UWQyngmEmyV2hHrH27q24c4MQFQ1B0mBFauXA0tkvlXeyJ18TiRhP2xrQOH0JPZ_RU4GHWoSNV8Pdnb8py75w86aJdq-v4Wvy9l6VPuNFpjktvxty7ch09S4NMxsCTWb5gK1KFw_qR-1Uls6qa1KOU5nzdy_0HL6uXOjPWR76dG_vLAfgkuMhn8PYSFDZosoqlgvm7pUyjw04CPzoU88_bs3Mv3CiUuO9RdxExwzkhYw_TS_ye4XonRLghrwFMJNXMLP4aYmxvr_u7RYbKVXbbxMx1ySskmKU1J63V0SYQhTzuz9ofHs7HUFMB4mYBm6B14yuo7kvwhOTwl2pq6Ww3KzkUlWNNRLEpVNaRqnA8ivyN3swVmGT8ntgC9x4v-dgoHanTCx8oTA17QrZ1gx7yMGuXhXUuPmDjcSf6sTKGcdi4Ds774k1nyAtVBJcaOfZi0a4gY8sHYz-8J065L7rnwJZHbft4Sd21SMIaApmBH9LV3fDXJSzBEAp5z5kovUKqBCdx6Zuqj7GvYfQ6a9747wGK-K0IU1Yeu46yE5aPjashPXNxB5GDE-Er042lG7rQx0uLcUXisF3Uui-HVmEQ1RSYYO6sCEobaMhq7g-qYWQGveuu4UPVPwPbwkh5ygBI7XWuO5c9o6nfhOAkpNbhOfd1mt0K4gq_q817JbcA21FSgHmMkTCBR-fd60Vil2WyD9LoxhUdDbdaC8Vh0Q7CtZse4nAr1buKheDF1CDhd2Zuz3oL_r6IHZpw0JtauzUFfQsgSMwuwOADpNwQQy6d_OCBnehPqfCQk3UkmsD3xM5hM__W-95t_tJVQTmC- -hCw2V3MS_dQbt-M0xHZVnRdLOWlHsGEskIgXTgaxg4knzWarH2rvJ2_ozZ3-4sFDG-1Bfuv1DaN1pI60_7Kahgw1zf_yB]--></g></svg>